<?xml version="1.0" encoding="utf-8"?>
<!-- Generator: Adobe Illustrator 16.0.0, SVG Export Plug-In . SVG Version: 6.00 Build 0)  -->
<!DOCTYPE svg PUBLIC "-//W3C//DTD SVG 1.1//EN" "http://www.w3.org/Graphics/SVG/1.1/DTD/svg11.dtd">
<svg version="1.1" id="Capa_1" xmlns="http://www.w3.org/2000/svg" xmlns:xlink="http://www.w3.org/1999/xlink" x="0px" y="0px"
	 width="209.53px" height="177.742px" viewBox="0 0 209.53 177.742" enable-background="new 0 0 209.53 177.742"
	 xml:space="preserve">
<g>
	<ellipse fill="#DEDEDE" cx="104.868" cy="88.991" rx="104.663" ry="88.751"/>
	<circle fill="#D1D1D1" cx="104.868" cy="92.551" r="78.451"/>
	<g>
		<path opacity="0.3" d="M177.993,136.084c-0.166,0.929-1.055,1.546-1.982,1.38l-53.559-9.594c-0.928-0.167-1.547-1.053-1.379-1.981
			l13.77-76.871c0.166-0.929,1.051-1.546,1.98-1.38l51.355,19.209l1.803,2.313L177.993,136.084z"/>
		<path fill="#FFFFFF" d="M189.386,68.228l-11.91,66.494c-0.166,0.929-1.057,1.545-1.982,1.379l-53.559-9.594
			c-0.93-0.166-1.547-1.052-1.379-1.981l13.77-76.871c0.166-0.929,1.053-1.546,1.98-1.379l44.729,8.012"/>
		<path opacity="0.3" d="M189.386,68.228l-9.875-0.838c-0.93-0.166-1.988-1.304-1.822-2.231l2.154-11.084l0.453,0.08"/>
		<path fill="#FFFFFF" d="M189.386,68.228l-9.568-1.714c-0.93-0.167-1.547-1.053-1.379-1.981l1.857-10.378"/>
		
			<rect x="131.796" y="101.372" transform="matrix(0.9843 0.1763 -0.1763 0.9843 20.4195 -25.5418)" fill="#E22085" width="44.307" height="1.541"/>
		<path fill="#E22085" d="M134.907,86.583c0,0,7.137-8.598,14.957,0.002c7.82,8.602,28.094,7.971,28.637,1.017l-3.287,18.349
			L132.8,98.355L134.907,86.583z"/>
		
			<ellipse transform="matrix(0.9843 0.1763 -0.1763 0.9843 17.0284 -28.5395)" fill="#E22085" cx="169.088" cy="81.539" rx="4.477" ry="4.991"/>
		<g opacity="0.3">
			<path d="M136.833,122.518c-0.588-0.106-1.09-0.26-1.506-0.461l0.389-2.168c0.428,0.191,0.828,0.32,1.197,0.387
				c0.57,0.103,1.012-0.003,1.322-0.313c0.313-0.313,0.535-0.847,0.67-1.603l2.063-11.519l2.607,0.467l-2.061,11.501
				c-0.258,1.434-0.783,2.47-1.57,3.102C139.153,122.546,138.116,122.747,136.833,122.518z"/>
			<path d="M154.472,113.218c-0.236,1.322-0.832,2.26-1.785,2.811c-0.951,0.555-2.189,0.693-3.713,0.421l-1.117-0.2l-0.783,4.372
				l-2.605-0.467l2.201-12.291l3.926,0.703c1.488,0.267,2.564,0.791,3.225,1.572C154.481,110.918,154.7,111.945,154.472,113.218z
				 M148.239,114.112l0.857,0.154c0.801,0.144,1.43,0.093,1.883-0.153c0.453-0.243,0.736-0.669,0.844-1.274
				c0.111-0.612,0.021-1.092-0.26-1.443c-0.279-0.353-0.775-0.59-1.488-0.718l-1.184-0.212L148.239,114.112z"/>
			<path d="M161.179,116.024l4.877,0.874l-1.143,6.373c-0.836,0.114-1.613,0.161-2.328,0.14c-0.717-0.021-1.439-0.098-2.168-0.228
				c-1.855-0.332-3.174-1.13-3.957-2.396c-0.783-1.265-0.99-2.917-0.625-4.959c0.355-1.984,1.199-3.429,2.533-4.334
				c1.332-0.906,3.006-1.181,5.02-0.819c1.26,0.226,2.432,0.695,3.514,1.409l-1.24,1.931c-0.816-0.608-1.709-1.001-2.678-1.175
				c-1.127-0.201-2.098,0.016-2.912,0.65c-0.813,0.635-1.334,1.592-1.563,2.87c-0.24,1.334-0.15,2.399,0.27,3.203
				c0.42,0.8,1.154,1.294,2.197,1.48c0.543,0.098,1.105,0.141,1.686,0.13l0.459-2.564l-2.33-0.418L161.179,116.024z"/>
		</g>
		<g>
			<path fill="#E22085" d="M136.665,122.122c-0.588-0.105-1.09-0.259-1.506-0.462l0.389-2.169c0.43,0.194,0.828,0.323,1.197,0.389
				c0.572,0.103,1.014-0.003,1.324-0.314s0.533-0.845,0.668-1.602l2.064-11.519l2.605,0.467l-2.061,11.503
				c-0.256,1.434-0.781,2.467-1.57,3.102C138.985,122.15,137.948,122.352,136.665,122.122z"/>
			<path fill="#E22085" d="M154.304,112.82c-0.236,1.323-0.832,2.262-1.783,2.814c-0.953,0.551-2.189,0.69-3.715,0.418l-1.117-0.201
				l-0.783,4.374l-2.605-0.467l2.201-12.292l3.926,0.702c1.49,0.268,2.566,0.792,3.227,1.573
				C154.315,110.522,154.532,111.55,154.304,112.82z M148.071,113.719l0.857,0.153c0.801,0.143,1.43,0.091,1.883-0.153
				c0.455-0.245,0.736-0.672,0.846-1.275c0.109-0.61,0.021-1.094-0.26-1.445c-0.281-0.35-0.775-0.59-1.488-0.717l-1.184-0.213
				L148.071,113.719z"/>
			<path fill="#E22085" d="M161.013,115.628l4.877,0.873l-1.143,6.373c-0.836,0.116-1.613,0.163-2.33,0.142
				c-0.717-0.021-1.438-0.096-2.166-0.227c-1.855-0.333-3.176-1.133-3.959-2.397c-0.781-1.266-0.99-2.918-0.625-4.957
				c0.355-1.985,1.199-3.431,2.533-4.337s3.008-1.179,5.02-0.819c1.262,0.227,2.432,0.697,3.514,1.411l-1.238,1.931
				c-0.818-0.61-1.711-1.001-2.68-1.175c-1.127-0.201-2.098,0.014-2.91,0.65c-0.814,0.634-1.336,1.592-1.564,2.868
				c-0.238,1.335-0.15,2.401,0.27,3.204c0.42,0.802,1.154,1.296,2.197,1.482c0.543,0.097,1.105,0.139,1.686,0.127l0.459-2.563
				l-2.328-0.417L161.013,115.628z"/>
		</g>
		
			<rect x="137.655" y="68.955" transform="matrix(0.9843 0.1763 -0.1763 0.9843 14.7193 -27.0918)" fill="#E22085" width="44.335" height="0.669"/>
		
			<rect x="118.37" y="81.557" transform="matrix(0.1763 -0.9843 0.9843 0.1763 30.9247 200.7375)" fill="#E22085" width="34.08" height="0.667"/>
		
			<rect x="161.408" y="89.664" transform="matrix(0.1763 -0.9843 0.9843 0.1763 58.2688 249.6297)" fill="#E22085" width="33.766" height="0.669"/>
	</g>
	<g>
		<path opacity="0.3" d="M137.845,94.388c0.02,0.943-0.73,1.723-1.672,1.742l-54.4,1.109c-0.944,0.02-1.722-0.729-1.742-1.672
			l-1.593-78.079c-0.019-0.942,0.729-1.723,1.672-1.742l54.129,8.751l2.219,1.914L137.845,94.388z"/>
		<path fill="#FFFFFF" d="M135.692,25.615l1.377,67.538c0.02,0.943-0.73,1.723-1.672,1.742l-54.401,1.109
			c-0.943,0.018-1.722-0.729-1.741-1.672l-1.592-78.08c-0.019-0.942,0.729-1.723,1.672-1.742l45.431-0.926"/>
		<path opacity="0.3" d="M135.69,25.535l-9.848,1.116c-0.943,0.02-2.205-0.888-2.225-1.83l-0.064-11.292l0.463-0.009"/>
		<path fill="#FFFFFF" d="M135.69,25.535l-9.719,0.197c-0.943,0.02-1.723-0.729-1.74-1.672l-0.215-10.541"/>
		
			<rect x="85.429" y="65.591" transform="matrix(0.9998 -0.0204 0.0204 0.9998 -1.3223 2.2084)" fill="#E22085" width="44.333" height="0.668"/>
		
			<rect x="85.332" y="60.845" transform="matrix(0.9998 -0.0204 0.0204 0.9998 -1.2255 2.2055)" fill="#E22085" width="44.332" height="0.666"/>
		
			<rect x="85.234" y="56.013" transform="matrix(0.9998 -0.0204 0.0204 0.9998 -1.1246 2.1977)" fill="#E22085" width="44.333" height="0.665"/>
		
			<rect x="85.135" y="51.138" transform="matrix(0.9998 -0.0204 0.0204 0.9998 -1.0276 2.1994)" fill="#E22085" width="44.333" height="0.666"/>
		
			<rect x="85.037" y="46.389" transform="matrix(0.9998 -0.0204 0.0204 0.9998 -0.9307 2.1965)" fill="#E22085" width="44.332" height="0.665"/>
		
			<rect x="84.939" y="41.555" transform="matrix(0.9998 -0.0204 0.0204 0.9998 -0.8321 2.1934)" fill="#E22085" width="44.333" height="0.667"/>
		
			<rect x="84.897" y="36.826" transform="matrix(0.9998 -0.0204 0.0204 0.9998 -0.7349 2.1892)" fill="#E22085" width="44.333" height="0.667"/>
		
			<rect x="84.777" y="29.951" transform="matrix(0.9998 -0.0205 0.0205 0.9998 -0.6243 1.9023)" fill="#E22085" width="15.699" height="3.002"/>
		<g opacity="0.3">
			<path d="M100.945,80.018c0.042,2.092-0.521,3.705-1.687,4.842c-1.168,1.134-2.875,1.728-5.123,1.772l-3.597,0.074l-0.259-12.7
				l3.988-0.082c2.073-0.043,3.693,0.473,4.863,1.543S100.905,78.055,100.945,80.018z M98.149,80.145
				c-0.056-2.729-1.289-4.066-3.698-4.018l-1.433,0.029l0.168,8.271l1.156-0.025C96.936,84.35,98.206,82.93,98.149,80.145z"/>
			<path d="M114.108,79.854c0.043,2.104-0.445,3.73-1.465,4.881c-1.02,1.149-2.502,1.745-4.449,1.786
				c-1.945,0.037-3.45-0.494-4.516-1.603c-1.066-1.109-1.621-2.719-1.664-4.834s0.448-3.74,1.47-4.875
				c1.023-1.137,2.511-1.727,4.462-1.766c1.953-0.039,3.455,0.492,4.514,1.596C113.517,76.143,114.065,77.746,114.108,79.854z
				 M104.838,80.043c0.029,1.42,0.32,2.482,0.875,3.189c0.551,0.707,1.365,1.049,2.436,1.027c2.15-0.045,3.193-1.494,3.135-4.348
				c-0.057-2.861-1.154-4.271-3.293-4.227c-1.07,0.021-1.871,0.398-2.402,1.131C105.061,77.547,104.811,78.623,104.838,80.043z"/>
			<path d="M121.048,75.438c-1.012,0.02-1.789,0.418-2.33,1.189s-0.797,1.84-0.77,3.199c0.059,2.834,1.148,4.229,3.273,4.186
				c0.893-0.02,1.969-0.264,3.227-0.736l0.047,2.259c-1.033,0.455-2.193,0.697-3.479,0.723c-1.846,0.039-3.271-0.492-4.271-1.595
				c-1.004-1.1-1.525-2.699-1.566-4.795c-0.027-1.322,0.188-2.482,0.648-3.486c0.461-1.002,1.135-1.779,2.025-2.326
				c0.889-0.549,1.939-0.836,3.148-0.859c1.234-0.025,2.48,0.248,3.738,0.82l-0.824,2.207c-0.479-0.217-0.961-0.404-1.445-0.563
				C121.983,75.502,121.513,75.426,121.048,75.438z"/>
		</g>
		<g>
			<path fill="#E22085" d="M100.808,79.457c0.042,2.092-0.521,3.705-1.687,4.842c-1.168,1.136-2.875,1.728-5.124,1.774l-3.596,0.072
				l-0.259-12.7l3.989-0.082c2.072-0.041,3.693,0.473,4.862,1.545C100.165,75.977,100.768,77.494,100.808,79.457z M98.012,79.584
				c-0.055-2.727-1.288-4.066-3.698-4.018l-1.433,0.031l0.168,8.27l1.156-0.025C96.799,83.789,98.069,82.373,98.012,79.584z"/>
			<path fill="#E22085" d="M113.972,79.295c0.045,2.102-0.445,3.729-1.465,4.881c-1.02,1.149-2.502,1.745-4.449,1.784
				c-1.943,0.039-3.452-0.494-4.516-1.603c-1.066-1.109-1.62-2.719-1.663-4.834c-0.044-2.113,0.446-3.738,1.469-4.875
				c1.023-1.137,2.511-1.725,4.462-1.764c1.953-0.041,3.455,0.49,4.514,1.594C113.378,75.58,113.929,77.186,113.972,79.295z
				 M104.704,79.482c0.027,1.42,0.318,2.482,0.874,3.191c0.551,0.705,1.365,1.047,2.436,1.027c2.15-0.045,3.193-1.494,3.137-4.348
				c-0.059-2.861-1.156-4.271-3.295-4.229c-1.07,0.021-1.871,0.4-2.4,1.131C104.924,76.988,104.674,78.064,104.704,79.482z"/>
			<path fill="#E22085" d="M120.911,74.877c-1.012,0.021-1.789,0.418-2.33,1.189c-0.541,0.773-0.797,1.842-0.77,3.199
				c0.059,2.834,1.148,4.229,3.273,4.186c0.893-0.02,1.967-0.262,3.229-0.736l0.045,2.261c-1.033,0.453-2.193,0.697-3.477,0.723
				c-1.848,0.037-3.271-0.494-4.273-1.595c-1.004-1.102-1.525-2.701-1.568-4.795c-0.027-1.324,0.191-2.484,0.65-3.488
				c0.461-1,1.135-1.779,2.025-2.326c0.889-0.549,1.941-0.836,3.148-0.859c1.234-0.025,2.48,0.248,3.738,0.82l-0.824,2.207
				c-0.479-0.217-0.961-0.404-1.445-0.563C121.847,74.941,121.376,74.867,120.911,74.877z"/>
		</g>
	</g>
	<g>
		<path opacity="0.3" d="M90.216,122.563c0.131,0.935-0.521,1.797-1.454,1.927l-53.887,7.547c-0.934,0.131-1.796-0.52-1.927-1.454
			L22.118,53.241c-0.131-0.935,0.52-1.796,1.454-1.927l54.784,2.277l2.431,1.637L90.216,122.563z"/>
		<path fill="#FFFFFF" d="M79.931,54.529l9.369,66.899c0.131,0.934-0.521,1.797-1.454,1.927l-53.886,7.547
			c-0.934,0.131-1.796-0.52-1.927-1.454L21.202,52.107c-0.131-0.934,0.52-1.797,1.454-1.928l45.002-6.302"/>
		<path opacity="0.3" d="M79.931,54.529l-9.646,2.275c-0.935,0.131-2.296-0.619-2.427-1.554l-1.4-11.205l0.457-0.063"/>
		<path fill="#FFFFFF" d="M79.931,54.529l-9.626,1.348c-0.935,0.131-1.797-0.52-1.927-1.454l-1.462-10.44"/>
		
			<rect x="34.641" y="97.55" transform="matrix(0.9903 -0.1387 0.1387 0.9903 -13.0262 8.8245)" fill="#E22085" width="44.333" height="0.666"/>
		
			<rect x="33.983" y="92.845" transform="matrix(0.9903 -0.1387 0.1387 0.9903 -12.3801 8.6876)" fill="#E22085" width="44.333" height="0.667"/>
		
			<rect x="33.312" y="88.059" transform="matrix(0.9903 -0.1387 0.1387 0.9903 -11.7228 8.5484)" fill="#E22085" width="44.333" height="0.667"/>
		
			<rect x="32.636" y="83.23" transform="matrix(0.9903 -0.1387 0.1387 0.9903 -11.0596 8.408)" fill="#E22085" width="44.333" height="0.667"/>
		
			<rect x="32.095" y="80.216" transform="matrix(0.9903 -0.1387 0.1387 0.9903 -10.7654 6.6154)" fill="#E22085" width="19.975" height="0.667"/>
		
			<rect x="31.425" y="75.43" transform="matrix(0.9903 -0.1387 0.1387 0.9903 -10.108 6.4762)" fill="#E22085" width="19.975" height="0.666"/>
		
			<rect x="54.783" y="76.938" transform="matrix(0.9903 -0.1387 0.1387 0.9903 -10.0851 9.8311)" fill="#E22085" width="21.417" height="0.667"/>
		
			<rect x="52.812" y="62.867" transform="matrix(0.9903 -0.1387 0.1387 0.9903 -8.1499 9.4185)" fill="#E22085" width="21.417" height="0.666"/>
		
			<rect x="67.677" y="68.464" transform="matrix(0.1387 0.9903 -0.9903 0.1387 132.5433 -14.8018)" fill="#E22085" width="14.209" height="0.666"/>
		
			<rect x="47.127" y="71.341" transform="matrix(0.1387 0.9903 -0.9903 0.1387 117.69 8.0261)" fill="#E22085" width="14.208" height="0.666"/>
		
			<rect x="30.433" y="66.619" transform="matrix(0.9903 -0.1387 0.1387 0.9903 -9.2024 5.7777)" fill="#E22085" width="12.86" height="4.625"/>
		<g opacity="0.3">
			<path d="M51.285,110.377c0.195,1.395-0.09,2.52-0.858,3.381c-0.767,0.859-1.954,1.402-3.561,1.627l-1.178,0.165l0.645,4.606
				l-2.746,0.385l-1.813-12.95l4.136-0.579c1.571-0.22,2.813-0.049,3.724,0.512C50.548,108.086,51.097,109.037,51.285,110.377z
				 M45.374,113.301l0.904-0.127c0.843-0.118,1.452-0.373,1.824-0.767c0.373-0.392,0.514-0.906,0.425-1.544
				c-0.09-0.645-0.333-1.095-0.727-1.352c-0.394-0.26-0.966-0.335-1.716-0.23l-1.249,0.175L45.374,113.301z"/>
			<path d="M64.798,110.843c0.298,2.131-0.081,3.848-1.135,5.152c-1.054,1.304-2.727,2.116-5.018,2.438l-3.667,0.514l-1.813-12.95
				l4.065-0.569c2.114-0.296,3.834,0.032,5.16,0.984C63.713,107.363,64.518,108.841,64.798,110.843z M61.955,111.313
				c-0.39-2.781-1.812-4-4.268-3.656l-1.461,0.205l1.181,8.432l1.177-0.164C61.229,115.758,62.353,114.152,61.955,111.313z"/>
			<path d="M71.106,116.688l-2.701,0.378l-1.813-12.949l7.422-1.04l0.315,2.25l-4.722,0.661l0.467,3.338l4.394-0.615l0.314,2.242
				l-4.394,0.615L71.106,116.688z"/>
		</g>
		<g>
			<path fill="#E22085" d="M50.898,110.116c0.195,1.395-0.09,2.519-0.857,3.38c-0.767,0.859-1.955,1.402-3.561,1.628l-1.178,0.165
				l0.645,4.606l-2.746,0.384l-1.813-12.949l4.136-0.579c1.571-0.221,2.813-0.049,3.724,0.512
				C50.161,107.825,50.71,108.775,50.898,110.116z M44.987,113.039l0.904-0.127c0.843-0.117,1.452-0.373,1.824-0.766
				c0.373-0.393,0.514-0.906,0.425-1.545c-0.09-0.644-0.333-1.094-0.727-1.352c-0.394-0.26-0.966-0.335-1.716-0.23l-1.249,0.176
				L44.987,113.039z"/>
			<path fill="#E22085" d="M64.412,110.581c0.298,2.132-0.081,3.849-1.135,5.152c-1.054,1.304-2.727,2.117-5.018,2.438l-3.667,0.514
				l-1.813-12.95l4.065-0.568c2.114-0.297,3.834,0.031,5.16,0.983C63.327,107.103,64.131,108.579,64.412,110.581z M61.568,111.052
				c-0.389-2.782-1.812-4.001-4.268-3.657l-1.461,0.205l1.181,8.433l1.177-0.165C60.842,115.497,61.966,113.891,61.568,111.052z"/>
			<path fill="#E22085" d="M70.72,116.426l-2.701,0.378l-1.813-12.949l7.423-1.04l0.315,2.25l-4.722,0.661l0.468,3.339l4.394-0.615
				l0.314,2.241l-4.394,0.615L70.72,116.426z"/>
		</g>
		<path fill="#E22085" d="M54.5,73.594c0,0,2.044-4.529,6.863-2.111s14.032-0.703,13.287-3.627l1.117,7.977l-20.55,2.879
			L54.5,73.594z"/>
		<circle fill="#E22085" cx="69.463" cy="66.702" r="2.156"/>
	</g>
	<g>
		<rect x="89.031" y="142.635" fill="#E22085" width="38.224" height="13.934"/>
		<polygon fill="#E22085" points="77.517,145.787 108.144,129.688 138.767,145.787 		"/>
	</g>
</g>
</svg>
