<?xml version="1.0" encoding="utf-8"?>
<!-- Generator: Adobe Illustrator 16.0.0, SVG Export Plug-In . SVG Version: 6.00 Build 0)  -->
<!DOCTYPE svg PUBLIC "-//W3C//DTD SVG 1.1//EN" "http://www.w3.org/Graphics/SVG/1.1/DTD/svg11.dtd">
<svg version="1.1" id="Layer_1" xmlns="http://www.w3.org/2000/svg" xmlns:xlink="http://www.w3.org/1999/xlink" x="0px" y="0px"
	 width="294px" height="36.754px" viewBox="0 0 294 36.754" enable-background="new 0 0 294 36.754" xml:space="preserve">
<g>
	<g>
		<g>
			<path fill="#616161" d="M279.628,3.893c0.567,0,1.115,0.145,1.657,0.437c0.535,0.29,0.953,0.7,1.249,1.233
				c0.302,0.535,0.456,1.092,0.454,1.674c0,0.574-0.148,1.129-0.441,1.655c-0.305,0.532-0.719,0.945-1.246,1.237
				c-0.539,0.292-1.094,0.437-1.681,0.437c-0.582,0-1.146-0.147-1.669-0.442c-0.539-0.292-0.949-0.707-1.248-1.235
				c-0.303-0.53-0.441-1.085-0.441-1.656c0-0.583,0.148-1.14,0.453-1.676c0.305-0.536,0.721-0.941,1.26-1.228
				C278.516,4.04,279.064,3.893,279.628,3.893L279.628,3.893z M279.628,4.448c-0.474,0-0.937,0.12-1.379,0.357
				c-0.449,0.243-0.798,0.585-1.054,1.026c-0.254,0.45-0.381,0.914-0.383,1.402c0,0.479,0.129,0.935,0.379,1.382
				c0.25,0.438,0.596,0.786,1.035,1.029c0.441,0.242,0.914,0.366,1.396,0.366c0.484,0,0.952-0.121,1.402-0.364
				c0.438-0.243,0.783-0.591,1.031-1.026c0.248-0.447,0.373-0.901,0.373-1.385c0-0.488-0.128-0.945-0.375-1.396
				c-0.246-0.445-0.599-0.788-1.052-1.029C280.555,4.571,280.098,4.448,279.628,4.448L279.628,4.448z M278.141,9.075l0.004-3.591
				l1.254,0.003c0.427,0.002,0.729,0.036,0.925,0.102c0.185,0.067,0.342,0.183,0.456,0.341c0.105,0.169,0.164,0.347,0.164,0.531
				c0,0.263-0.094,0.491-0.282,0.687c-0.19,0.187-0.442,0.3-0.755,0.326c0.129,0.052,0.232,0.111,0.311,0.194
				c0.146,0.135,0.315,0.371,0.533,0.704l0.439,0.705l-0.715,0.002l-0.32-0.575c-0.252-0.439-0.457-0.721-0.606-0.827
				c-0.108-0.084-0.26-0.127-0.47-0.127h-0.346l-0.002,1.526L278.141,9.075L278.141,9.075z M278.732,7.058h0.709
				c0.342,0,0.57-0.051,0.699-0.153c0.119-0.1,0.182-0.23,0.182-0.396c0-0.107-0.024-0.204-0.086-0.287
				c-0.059-0.079-0.146-0.148-0.25-0.189c-0.109-0.042-0.297-0.059-0.582-0.059h-0.67L278.732,7.058L278.732,7.058z"/>
			<path fill="#616161" d="M12.688,27.891v-0.812h1.987l0.019-15.229c0.001-0.678-0.099-1.132-0.292-1.363
				c-0.196-0.233-0.573-0.352-1.139-0.352l-0.557-0.002V9.311l6.442,0.007l-0.001,0.821l-1.959,0.002l-0.02,15.232
				c0,0.688,0.101,1.146,0.29,1.371c0.192,0.229,0.567,0.34,1.113,0.34h0.556l-0.001,0.81L12.688,27.891L12.688,27.891z
				 M30.933,27.103l0.015-15.232c0.002-0.685-0.097-1.137-0.288-1.366c-0.197-0.234-0.582-0.354-1.158-0.354h-0.513V9.33
				l3.192,0.003l7.793,13.962l0.016-11.417c-0.006-0.681-0.107-1.137-0.302-1.366c-0.201-0.238-0.587-0.354-1.149-0.354h-0.554
				l0.001-0.821l4.747,0.007l-0.001,0.82l-1.958-0.005l-0.02,18.17H39.97l-8.235-14.727l-0.014,11.783
				c-0.001,0.67,0.096,1.121,0.29,1.361c0.199,0.236,0.576,0.354,1.142,0.354h0.555v0.812l-4.736-0.008v-0.809L30.933,27.103
				L30.933,27.103z M55.541,27.932l0.001-0.807h1.995l0.015-16.943h-0.759c-1.109-0.002-1.927,0.312-2.448,0.938
				c-0.528,0.628-0.793,1.605-0.794,2.943l-0.003,2.471l-0.812-0.002l0.012-8.458h0.81L53.556,9.35l10.462,0.012l0.003-1.276
				l0.827,0.002l-0.009,8.455l-0.828,0.002l0.002-2.47c0.002-1.337-0.262-2.312-0.786-2.943c-0.52-0.633-1.336-0.945-2.459-0.945
				l-0.728-0.002l-0.019,15.224c0.005,0.689,0.1,1.156,0.293,1.379c0.189,0.231,0.562,0.342,1.112,0.342l1.291,0.006v0.81
				L55.541,27.932L55.541,27.932z M74.904,27.954l0.002-0.813l1.989,0.002l0.019-15.224c0-0.685-0.099-1.134-0.295-1.372
				c-0.198-0.228-0.575-0.349-1.136-0.349h-0.562l0.001-0.823l6.441,0.007l-0.001,0.822h-1.958L79.39,25.436
				c0,0.686,0.093,1.143,0.283,1.372c0.19,0.226,0.566,0.34,1.12,0.34h0.555v0.813L74.904,27.954L74.904,27.954z M93.153,27.161
				l0.01-15.229c0-0.683-0.092-1.139-0.286-1.368c-0.199-0.238-0.583-0.354-1.157-0.354h-0.516V9.39l4.798,0.004l2.98,8.761
				l3.336-8.758l4.743,0.007v0.828l-1.974-0.003l-0.015,15.23c0,0.668,0.101,1.125,0.304,1.36c0.193,0.238,0.58,0.356,1.14,0.354
				l0.531,0.002v0.807l-6.308-0.007l0.003-0.812l1.961,0.006l0.166-16.947l-4.647,12.348l-4.266-12.355l-0.019,15.232
				c0,0.672,0.101,1.119,0.292,1.362c0.193,0.235,0.575,0.351,1.141,0.351h0.554v0.813l-4.739-0.007v-0.811L93.153,27.161
				L93.153,27.161z M121.2,15.681h1.985l-0.971-3.52L121.2,15.681L121.2,15.681z M115.286,27.989v-0.803l1.527,0.002l5.564-18.165
				l0.984,0.002l5.015,16.654c0.149,0.521,0.35,0.901,0.602,1.149c0.257,0.248,0.575,0.364,0.971,0.373l0.413-0.009l0.002,0.813
				l-5.937-0.008l0.002-0.806l1.854-0.005l-2.898-10.699l-2.468-0.003l-2.528,8.347v0.028c-0.132,0.486-0.199,0.812-0.199,0.976
				c0,0.438,0.141,0.771,0.424,1c0.278,0.232,0.688,0.351,1.219,0.351l0.795,0.002V28L115.286,27.989L115.286,27.989z"/>
			<path fill="#616161" d="M151.805,12.548l0.004-3.603c0.002-1.954-0.375-3.435-1.148-4.45c-0.78-1.009-1.924-1.515-3.434-1.518
				c-1.261-0.002-2.314,0.388-3.177,1.164c-0.848,0.776-1.275,1.735-1.278,2.874c-0.002,1.073,0.404,2.045,1.214,2.92
				c0.808,0.871,2.482,2.008,5.035,3.389c0.27,0.145,0.674,0.371,1.192,0.644c6.265,3.365,9.411,6.957,9.407,10.803
				c-0.002,3.589-1.288,6.478-3.83,8.688c-2.548,2.195-5.93,3.299-10.147,3.295c-3.573-0.006-6.544-0.988-8.883-2.963
				c-2.357-1.951-3.533-4.377-3.526-7.275c0-2.501,0.797-4.581,2.413-6.24c1.598-1.649,3.614-2.483,6.036-2.48
				c2.081,0,3.833,0.544,5.282,1.649c1.447,1.097,2.167,2.427,2.163,3.979c0,1.164-0.37,2.076-1.122,2.756
				c-0.742,0.673-1.771,1.009-3.058,1.007c-0.398,0-0.729-0.024-0.989-0.091c-0.271-0.061-0.502-0.152-0.705-0.275l0.048-0.912
				c0.852-0.027,1.562-0.343,2.101-0.924c0.559-0.592,0.827-1.324,0.827-2.203c0.002-1.045-0.406-1.896-1.216-2.558
				c-0.827-0.667-1.88-1.001-3.169-1.004c-1.705,0.003-3.135,0.614-4.281,1.858c-1.146,1.248-1.716,2.815-1.717,4.719
				c-0.006,2.535,1.039,4.721,3.117,6.549c2.08,1.828,4.584,2.738,7.51,2.738c2.813,0.004,5.138-0.824,6.983-2.479
				c1.851-1.656,2.782-3.73,2.786-6.213c0.002-1.527-0.424-2.823-1.293-3.898c-0.865-1.07-2.727-2.406-5.6-4.022
				c-0.314-0.166-0.785-0.435-1.408-0.775c-5.266-2.943-7.896-5.945-7.894-9c0.004-2.064,0.725-3.8,2.163-5.218
				c1.444-1.427,3.172-2.141,5.22-2.139c0.807,0,1.538,0.104,2.221,0.287c0.676,0.191,1.399,0.503,2.16,0.941L151.816,0h1.52
				l-0.004,12.548H151.805L151.805,12.548z"/>
			<path fill="#616161" d="M173.275,9.473l0.002-1.22h0.894l-0.009,6.51h-0.887l-0.006-1.188c0.002-1.183-0.287-2.025-0.863-2.525
				c-0.583-0.503-1.563-0.757-2.938-0.759l-1.432,0.002l-0.008,4.498l2.289,0.002l0.002-2.551l0.875,0.003l-0.008,6.566
				l-0.873-0.003l0.002-1.33c0.004-0.597-0.149-1.063-0.447-1.39c-0.303-0.323-0.723-0.49-1.248-0.49h-0.592l-0.006,11.641
				l1.613,0.002c1.276,0,2.197-0.268,2.772-0.812c0.569-0.553,0.851-1.43,0.853-2.646l0.002-1.306h0.895l-0.01,6.937l-0.89,0.006
				l-0.001-1.367l-9.693-0.008l0.002-0.81h1.963l0.015-15.222c0.001-0.69-0.096-1.142-0.29-1.378
				c-0.199-0.228-0.582-0.346-1.154-0.349h-0.517l0.004-0.822L173.275,9.473L173.275,9.473z"/>
			<path fill="#616161" d="M201.83,25.12l0.727,0.834c-0.967,0.838-2.027,1.469-3.193,1.896c-1.168,0.425-2.426,0.639-3.784,0.634
				c-2.942,0.003-5.371-0.918-7.272-2.755c-1.896-1.83-2.834-4.149-2.834-6.963c0.002-2.689,0.959-4.962,2.879-6.849
				c1.926-1.885,4.27-2.818,7.053-2.815c0.943,0,1.883,0.123,2.807,0.385c0.934,0.253,1.874,0.636,2.818,1.144V8.776h0.816
				l-0.008,7.381l-0.818-0.002l0.004-1.159c0.002-1.49-0.568-2.688-1.705-3.604c-1.146-0.914-2.627-1.375-4.451-1.378
				c-2.112-0.002-3.801,0.669-5.055,2.023c-1.246,1.348-1.881,3.171-1.875,5.479c0,1.311,0.193,2.55,0.596,3.729
				c0.4,1.176,0.979,2.229,1.744,3.156c0.834,1.039,1.761,1.811,2.765,2.325c1.011,0.506,2.121,0.761,3.332,0.761
				c1.036,0.002,2.005-0.189,2.892-0.574C200.148,26.536,201.007,25.93,201.83,25.12L201.83,25.12z"/>
			<path fill="#616161" d="M216.63,11.957l-0.007,10.7l0.611-0.968c1.023,0.677,1.891,1.147,2.588,1.422
				c0.716,0.274,1.392,0.417,2.041,0.412c1.533,0.011,2.802-0.54,3.809-1.62c0.998-1.076,1.505-2.482,1.508-4.205
				c0.002-2.012-0.645-3.76-1.929-5.226c-1.283-1.475-2.819-2.217-4.582-2.219c-0.743,0-1.454,0.149-2.136,0.432
				C217.85,10.973,217.211,11.4,216.63,11.957L216.63,11.957z M212.166,28.088l0.001-0.81l1.964,0.003l0.014-15.229
				c0-0.683-0.101-1.14-0.301-1.368c-0.189-0.228-0.576-0.354-1.146-0.352l-0.513-0.002V9.509l4.455,0.008l-0.008,1.19
				c0.823-0.538,1.637-0.933,2.452-1.193c0.81-0.266,1.655-0.396,2.538-0.396c2.173,0.007,4.036,0.749,5.577,2.237
				c1.551,1.485,2.327,3.257,2.325,5.299c-0.002,2.195-0.69,3.994-2.051,5.41c-1.369,1.411-3.181,2.183-5.425,2.317l3.804,1.974
				c0.527,0.274,1.041,0.481,1.563,0.636c0.51,0.145,0.996,0.217,1.451,0.219c0.248,0.002,0.489-0.021,0.696-0.062
				c0.213-0.044,0.422-0.103,0.621-0.177l0.39,0.558c-0.427,0.261-0.86,0.459-1.325,0.581c-0.445,0.133-0.939,0.191-1.465,0.191
				c-1.066-0.002-2.332-0.299-3.782-0.891c-1.446-0.593-3.909-1.92-7.381-3.979l-0.002,2.132c-0.001,0.673,0.099,1.13,0.29,1.37
				c0.197,0.233,0.576,0.353,1.14,0.354h1.228V28.1L212.166,28.088L212.166,28.088z"/>
			<path fill="#616161" d="M249.799,9.547V8.326h0.885v6.513l-0.894,0.002v-1.185c0.003-1.185-0.287-2.027-0.872-2.536
				c-0.586-0.499-1.562-0.749-2.93-0.751h-1.438l-0.005,4.498l2.291,0.002l0.004-2.555h0.873l-0.009,6.575l-0.873-0.002l0.003-1.331
				c0-0.596-0.153-1.063-0.444-1.391c-0.31-0.322-0.723-0.486-1.257-0.486h-0.588l-0.015,11.638h1.617
				c1.276,0.003,2.201-0.266,2.778-0.816c0.564-0.545,0.851-1.424,0.853-2.643v-1.309l0.894,0.008l-0.008,6.936h-0.888l0.003-1.365
				l-9.693-0.016v-0.803l1.955,0.003l0.021-15.232c-0.008-0.68-0.103-1.134-0.297-1.365c-0.192-0.231-0.584-0.351-1.156-0.351
				h-0.512l0.004-0.828L249.799,9.547L249.799,9.547z"/>
			<path fill="#616161" d="M264.534,28.141v-0.811l1.987,0.002l0.021-16.943l-0.759-0.003c-1.113,0-1.926,0.315-2.446,0.943
				c-0.528,0.628-0.788,1.61-0.791,2.941l-0.002,2.474l-0.817-0.007l0.006-8.454l0.813,0.002l0.006,1.279l10.456,0.007l0.002-1.276
				h0.83l-0.008,8.458h-0.83l0.002-2.471c0-1.335-0.264-2.313-0.783-2.946c-0.521-0.628-1.345-0.942-2.464-0.945h-0.726
				l-0.014,15.229c-0.008,0.688,0.102,1.149,0.287,1.379c0.192,0.229,0.561,0.34,1.115,0.34l1.284,0.002l-0.001,0.812
				L264.534,28.141L264.534,28.141z"/>
		</g>
	</g>
</g>
</svg>
