<?xml version="1.0" encoding="utf-8"?>
<!-- Generator: Adobe Illustrator 16.0.0, SVG Export Plug-In . SVG Version: 6.00 Build 0)  -->
<!DOCTYPE svg PUBLIC "-//W3C//DTD SVG 1.1//EN" "http://www.w3.org/Graphics/SVG/1.1/DTD/svg11.dtd">
<svg version="1.1" id="Layer_1" xmlns="http://www.w3.org/2000/svg" xmlns:xlink="http://www.w3.org/1999/xlink" x="0px" y="0px"
	 width="648px" height="140px" viewBox="0 0 648 140" enable-background="new 0 0 648 140" xml:space="preserve">
<g>
	<path fill="#FFFFFF" d="M409.854,43.977c-1.466-13.203-8.166-22.892-20.748-28.416c-7.906-3.474-16.291-4.584-24.862-4.597
		c-18.185-0.037-36.37-0.013-54.554-0.006c-0.724,0-1.437,0.075-2.19,0.123c0,37.615,0,75.069,0,112.526c7.585,0,14.991,0,22.594,0
		c0-11.568,0-22.992,0-34.787c1.251,0,2.149,0,3.046,0c9.918,0,19.851,0.273,29.754-0.098c6.229-0.24,12.558-0.887,18.59-2.337
		c10.966-2.637,19.606-8.704,24.746-18.83C410.01,60.104,410.75,52.109,409.854,43.977z M386.782,56.676
		c-2.128,7.92-8.089,11.729-15.96,12.781c-4.473,0.594-9.059,0.538-13.592,0.582c-8.767,0.073-17.529,0.002-26.293-0.009
		c-0.16,0-0.318-0.081-0.66-0.171c0-13.054,0-26.155,0-39.104c13.675,0,27.158-0.455,40.595,0.146
		c10.599,0.478,16.555,7.303,16.76,17.64C387.686,51.247,387.484,54.064,386.782,56.676z"/>
	<g>
		<path fill="#FFFFFF" d="M37.179,10.951c0,1.5,0,2.998,0,4.498c0,1.501,0,3.005,0,4.5c0,0.751,0,1.501,0,2.247
			c0,3.002,0,6.002,0,9.003c0,0.746,0,1.495,0,2.248c0,2.994,0,6.001,0,8.996c0,0.754,0,1.497,0,2.254c0,1.502,0,2.993,0,4.493
			c0,2.998,0,6.002,0,9.002c0,1.492,0,2.998,0,4.496c0,0.749,0,1.502,0,2.253c0,1.501,0,2.998,0,4.496c0,3.006,0,6.002,0,8.999
			c0,1.504,0,3.004,0,4.5c0,0.754,0,1.502,0,2.252c0,1.502,0,3,0,4.492c0,3.004,0,6.004,0,9.002c0,1.506,0,3.002,0,4.502
			c3.003,0,6.002,0,8.995,0c1.503,0,3.003,0,4.5,0c0.753,0,1.503,0,2.25,0c3.002,0-4.337,0-1.334,0c1.496,0,2.996,0,4.496,0
			c0.747,0,1.497,0,2.25,0c2.993,0-1.759,0,1.245,0c1.496,0,2.993,0,4.493,0c0.753,0,1.503,0,2.253,0c1.499,0,3.002,0,4.502,0
			c0.741,0,1.494,0,2.25,0c1.492,0,2.996,0,4.492,0c0.753,0,1.5,0,2.253,0c1.5,0,3.003,0,4.503,0c0.743,0,1.49,0,2.246,0
			c0,3.004,0,5.994,0,8.994c0,1.502,0,3.002,0,4.504c0,0.745,0,1.498,0,2.245c0,1.5,0,3,0,4.5c-1.503,0-3,0-4.496,0
			c-1.506,0-3.006,0-4.506,0c-0.747,0-1.497,0-2.25,0c-1.496,0-2.999,0-4.493,0c-3.003,0-6.002,0-8.999,0c-1.499,0-3.002,0-4.502,0
			c-0.75,0-1.497,0-2.253,0c-1.494,0,4.755,0,3.262,0c-3,0-5.999,0-8.999,0c-1.503,0-3,0-4.496,0c-0.753,0,8.836,0,8.083,0
			c-1.497,0-2.997,0-4.493,0c-3.003,0-6,0-9.006,0c-1.496,0-2.996,0-4.496,0c-0.747,0-1.497,0-2.246,0c-1.503,0-3.003,0-4.5,0
			c-3.003,0-5.999,0-9,0c-1.5,0-2.996,0-4.496,0c0-1.5,0-3,0-4.5s0-2.995,0-4.491c0-0.756,0-1.5,0-2.258c0-1.5,0-3,0-4.502
			c0-0.744,0-1.488,0-2.244c0-1.492,0-2.992,0-4.492c0-0.752,0-1.51,0-2.258c0-1.496,0-2.998,0-4.494c0-0.754,0-1.504,0-2.25
			c0-1.5,0-3.002,0-4.502c0-0.746,0-1.504,0-2.248c0-1.498,0-2.994,0-4.502c0-0.746,0-1.498,0-2.25c0-1.5,0-2.996,0-4.496
			c0-0.754,0-1.496,0-2.254c0-3,0-5.995,0-8.998c0-0.747,0-1.498,0-2.246c0-1.501,0-3,0-4.5c0-0.75,0-1.503,0-2.25
			c0-1.504,0-3.004,0-4.502c0-0.746,0-1.5,0-2.246c0-3.004,0-6.001,0-8.992c0-0.756,0-1.511,0-2.258c0-1.495,0-3,0-4.495
			c0-0.754,0-1.496,0-2.247c0-1.502,0-3.003,0-4.506c0-0.754,0-1.497,0-2.25c0-1.496,0-3,0-4.5s0-2.996,0-4.5
			c0.106-0.169-0.146-2.222,0-2.245c0.677-0.133,1.553,0,2.247,0c1.496,0,2.993,0,4.499,0c0.75,0,1.503,0,2.25,0
			c1.496,0,2.996,0,4.499,0C31.179,10.951,34.182,10.951,37.179,10.951z"/>
		<path fill="#FFFFFF" d="M100.399,10.951c0.753,0,1.503,0,2.256,0c2.997,0,6,0,8.996,0c3,0,6,0,8.999,0c0,1.5,0,2.998,0,4.498
			c0,3.005,0,6.001,0,8.997c0,1.503,0,3.004,0,4.506c0,0.751,0,1.493,0,2.247c0,1.495,0,3,0,4.495c-1.503,0-2.999,0-4.5,0
			c-2.996,0-5.999,0-8.999,0c-1.5,0-2.997,0-4.497,0c-0.753,0-1.503,0-2.256,0c0-5.991,0-12.002,0-17.998c0-1.5,0-2.996,0-4.5
			C100.399,12.451,100.399,11.696,100.399,10.951z"/>
		<path fill="#FFFFFF" d="M161.481,10.951c0,1.5,0,2.998,0,4.498c0,0.747,0,1.501,0,2.247c0,1.5,0,3.004,0,4.5
			c0,0.753,0,1.496,0,2.25c0,1.503,0,3.004,0,4.506c0,0.751,0,1.493,0,2.247c0,1.495,0,3,0,4.495c0,0.747,0,1.502,0,2.258
			c0,1.496,0,2.991,0,4.491c0,0.754,0,1.497,0,2.254c0,1.502,0,2.993,0,4.493c0,0.753,0,1.498,0,2.251c0,1.5,0,2.998,0,4.501
			c0,0.753,0,1.5,0,2.25c0,1.492,0,2.998,0,4.496c0,0.749,0,1.502,0,2.253c0,1.501,0,2.998,0,4.496c0,0.749,0,1.502,0,2.249
			c0,1.5,0,3,0,4.5c0,0.75,0,1.496,0,2.25c0,1.504,0,3.004,0,4.5c0,0.754,0,1.502,0,2.252c0,1.502,0,3,0,4.492
			c0,0.758,0,1.506,0,2.258c0,1.496,0,2.996,0,4.496c0,0.752,0,1.493,0,2.248c0,1.506,0,3.002,0,4.502c0,0.756,0,1.494,0,2.248
			c0,1.5,0,3,0,4.5c0,0.746,0,1.5,0,2.246c0,1.502,0,3.002,0,4.504c0,1.498,0,3,0,4.5c0,0.745,0,1.5,0,2.245
			c-3.003,0-5.999,0-8.999,0c-1.503,0-3,0-4.497,0c-0.757,0-1.506,0-2.25,0c-1.5,0-3.006,0-4.503,0c0-1.5,0-3,0-4.5s0-2.995,0-4.491
			c0-0.756,0-1.5,0-2.258c0-1.5,0-3,0-4.502c0-0.744,0-1.488,0-2.244c0-1.492,0-2.992,0-4.492c0-0.752,0-1.51,0-2.258
			c0-1.496,0-2.998,0-4.494c0-0.754,0-1.504,0-2.25c0-1.5,0-3.002,0-4.502c0-0.746,0-1.504,0-2.248c0-1.498,0-2.994,0-4.502
			c0-0.746,0-1.498,0-2.25c0-1.5,0-2.996,0-4.496c0-0.754,0-1.496,0-2.254c0-3,0-5.995,0-8.998c0-0.747,0-1.498,0-2.246
			c0-1.501,0-3,0-4.5c0-0.75,0-1.503,0-2.25c0-1.504,0-3.004,0-4.502c0-0.746,0-1.5,0-2.246c0-3.004,0-6.001,0-8.992
			c0-0.756,0-1.511,0-2.258c0-1.495,0-3,0-4.495c0-0.754,0-1.496,0-2.247c0-1.502,0-3.003,0-4.506c0-0.754,0-1.497,0-2.25
			c0-1.496,0-3,0-4.5s0-2.996,0-4.5c0.126-0.178-0.166-2.205,0-2.245c0.657-0.154,1.576,0,2.253,0c2.993,0,5.996,0,8.996,0
			C155.482,10.951,158.478,10.951,161.481,10.951z"/>
		<path fill="#FFFFFF" d="M184.645,10.951c0.757,0,1.5,0,2.25,0c3,0,6.003,0,8.995,0c3.007,0,6.006,0,9,0c0,1.5,0,2.998,0,4.498
			c0,3.005,0,6.001,0,8.997c0,1.503,0,3.004,0,4.506c0,0.751,0,1.493,0,2.247c0,1.495,0,3,0,4.495c-1.5,0-2.994,0-4.5,0
			c-3,0-5.996,0-8.996,0c-1.5,0-3,0-4.5,0c-0.75,0-1.493,0-2.25,0c0-5.991,0-12.002,0-17.998c0-1.5,0-2.996,0-4.5
			C184.645,12.451,184.645,11.696,184.645,10.951z"/>
		<path fill="#FFFFFF" d="M100.399,46.944c0.753,0,1.503,0,2.256,0c1.5,0,2.997,0,4.497,0c1.503,0,3,0,4.499,0c3,0,6,0,8.999,0
			c0,1.5,0,2.999,0,4.497c0,23.999,0,47.989,0,71.986c-2.999,0-6,0-8.999,0c-1.5,0-2.996,0-4.499,0c-0.75,0-1.5,0-2.25,0
			c-1.494,0-3,0-4.503,0c0-11.995,0-23.997,0-35.991c0-5.996,0-11.996,0-17.999c0-2.995,0-6,0-8.995c0-1.501,0-3,0-4.5
			c0-0.75,0-1.503,0-2.25c0-1.504,0-3.004,0-4.502C100.399,48.444,100.399,47.69,100.399,46.944z"/>
		<path fill="#FFFFFF" d="M184.645,46.944c0.757,0,1.5,0,2.25,0c1.5,0,3,0,4.5,0c1.503,0,3,0,4.496,0c3.007,0,6.006,0,9,0
			c0,1.5,0,2.999,0,4.497c0,23.999,0,47.989,0,71.986c-2.994,0-5.993,0-9,0c-1.496,0-2.992,0-4.496,0c-0.75,0-1.5,0-2.253,0
			c-1.496,0-2.996,0-4.496,0c0-11.995,0-23.997,0-35.991c0-5.996,0-11.996,0-17.999c0-2.995,0-6,0-8.995c0-1.501,0-3,0-4.5
			c0-0.75,0-1.503,0-2.25c0-1.504,0-3.004,0-4.502C184.645,48.444,184.645,47.69,184.645,46.944z"/>
		<g>
			<path fill="#FFFFFF" d="M421.404,10.951c0.744,0,1.497,0,2.25,0c3,0,6,0,8.999,0c2.993,0,5.991,0,8.991,0c0,1.5,0,2.998,0,4.498
				c0,3.005,0,6.001,0,8.997c0,1.503,0,3.004,0,4.506c0,0.751,0,1.493,0,2.247c0,1.495,0,3,0,4.495c-1.5,0-3,0-4.498,0
				c-2.993,0-5.996,0-8.992,0c-1.5,0-3.004,0-4.5,0c-0.753,0-1.506,0-2.25,0c0-5.991,0-12.002,0-17.998c0-1.5,0-2.996,0-4.5
				C421.404,12.451,421.404,11.696,421.404,10.951z"/>
			<path fill="#FFFFFF" d="M556.378,10.951c0.747,0,1.501,0,2.244,0c3.003,0,5.999,0,9.002,0c3,0,5.996,0,8.999,0
				c0,5.999,0,11.998,0,18.001c0,2.993,0,5.989,0,9c0,1.496,0,2.991,0,4.491c0,0.754,0,1.497,0,2.254c0,2.993,0,5.991,0,8.995
				c0,1.5,0,3.003,0,4.5c0,0.745,0,1.492,0,2.25c0,2.995,0,6,0,8.995c0,1.502,0,3.006,0,4.502c0,0.746,0,1.5,0,2.246
				c0,0.75,0,1.496,0,2.25c0.448-0.295,31.387-31.474,31.493-31.492c0.707-0.111,1.528,0,2.25,0c0.753,0,1.5,0,2.249,0
				c0.75,0,1.5,0,2.246,0c1.504,0,3,0,4.507,0c0.753,0,1.496,0,2.243,0c1.496,0,3.002,0,4.499,0c0.753,0,1.504,0,2.253,0
				c1.5,0,2.993,0,4.499,0c0.645,0,1.634-0.17,2.251,0c0,0-36.18,35.801-35.989,35.992c0.308,0.314,38.309,40.441,38.235,40.491
				c-0.362,0.292-1.775-0.104-2.246,0c-0.642,0.156-1.58,0-2.251,0c-0.749,0-1.506,0-2.252,0c-0.747,0-1.497,0-2.247,0
				c-2.993,0-5.992,0-8.995,0c-0.754,0-1.507,0-2.25,0c-0.753,0-1.507,0-2.257,0c-0.692,0-24.361-26.622-24.743-26.993
				c-0.371-0.371-1.951-1.799-2.249-2.246c-0.751,0-1.497,0-2.247,0s-1.5,0-2.25,0s-1.506,0-2.246,0
				c-0.302,0.447-4.396,4.225-4.503,4.494c-0.206,0.525,0,1.685,0,2.258c0,0.744,0,1.5,0,2.244c0,0.756,0,1.494,0,2.248
				c0,0.729,0.069,1.524,0,2.244c-0.069,0.736,0,1.518,0,2.256c0,0.746,0,1.5,0,2.246c0,3.002,0,6.002,0,9.004
				c0,0.746,0,1.5,0,2.246c-3.003,0-5.999,0-8.999,0c-1.497,0-3.003,0-4.503,0c-0.746,0-1.496,0-2.246,0c-1.496,0-2.996,0-4.497,0
				c0-1.5,0-3,0-4.5s0-2.996,0-4.492c0-0.756,0-1.5,0-2.258c0-1.5,0-3,0-4.502c0-0.744,0-1.488,0-2.244c0-1.492,0-2.992,0-4.492
				c0-0.752,0-1.51,0-2.258c0-1.496,0-2.998,0-4.494c0-0.754,0-1.504,0-2.25c0-1.5,0-3.002,0-4.502c0-0.746,0-1.504,0-2.248
				c0-1.498,0-2.994,0-4.502c0-0.746,0-1.498,0-2.25c0-1.5,0-2.996,0-4.496c0-0.754,0-1.496,0-2.254c0-3,0-5.995,0-8.998
				c0-0.747,0-1.498,0-2.246c0-1.501,0-3,0-4.5c0-0.75,0-1.503,0-2.25c0-1.504,0-3.004,0-4.502c0-0.746,0-1.5,0-2.246
				c0-3.004,0-6.001,0-8.992c0-0.756,0-1.511,0-2.258c0-1.495,0-3,0-4.495c0-0.754,0-1.496,0-2.247c0-1.502,0-3.003,0-4.506
				c0-0.754,0-1.497,0-2.25c0-1.496,0-3,0-4.5s0-2.996,0-4.5C556.378,12.451,556.378,11.696,556.378,10.951z"/>
			<path fill="#FFFFFF" d="M421.404,46.944c0.744,0,1.497,0,2.25,0c1.496,0,3,0,4.5,0s2.996,0,4.499,0c2.993,0,5.991,0,8.991,0
				c0,1.5,0,2.999,0,4.497c0,23.999,0,47.989,0,71.986c-3,0-5.998,0-8.991,0c-1.503,0-2.999,0-4.499,0c-0.753,0-1.5,0-2.257,0
				c-1.486,0-2.996,0-4.493,0c0-11.995,0-23.997,0-35.991c0-5.996,0-11.996,0-17.999c0-2.995,0-6,0-8.995c0-1.501,0-3,0-4.5
				c0-0.75,0-1.503,0-2.25c0-1.504,0-3.004,0-4.502C421.404,48.444,421.404,47.69,421.404,46.944z"/>
		</g>
		<path fill="#FFFFFF" d="M290.917,74.221c-0.78-5.237-3.554-9.856-7.831-13.014c-3.405-2.505-7.439-3.832-11.677-3.832
			c-4.981,0-9.766,1.904-13.362,5.203c-3.65-3.534-8.571-5.568-13.757-5.568c-4.035,0-7.924,1.214-11.251,3.523
			c-4.344,3.027-7.248,7.567-8.163,12.779c-0.913,5.185,0.252,10.402,3.268,14.676l0.396,0.566c0.119,0,0.245-0.006,0.365,0
			l11.646,0.008l-4.367-6.229c-1.5-2.134-2.074-4.736-1.626-7.32c0.464-2.609,1.918-4.895,4.095-6.407
			c1.659-1.151,3.61-1.759,5.638-1.759c3.249,0,6.285,1.577,8.137,4.227l5.398,7.69l5.618-7.551
			c1.871-2.541,4.778-4.002,7.967-4.002c2.127,0,4.151,0.661,5.847,1.915c2.15,1.579,3.541,3.896,3.932,6.53
			c0.378,2.595-0.269,5.174-1.829,7.273l-13.804,18.563l-0.119,0.167c-0.378,0.551-0.942,1.138-1.696,1.76l-0.163,0.135
			c-0.023,0.02-2.402,1.955-5.916,1.955h-0.126c-3.723-0.055-5.989-2.049-6.022-2.085l-0.325-0.28
			c-0.607-0.494-1.175-1.105-1.706-1.858l-0.468-0.662c-2.263,0.146-11.524,0.31-11.524,0.31c1.052,1.467,6.129,8.72,7.396,9.748
			c1.055,0.961,5.522,4.567,12.513,4.664h0.262c6.922,0,11.498-3.619,12.367-4.373c1.447-1.184,2.575-2.394,3.475-3.687
			l13.744-18.486C290.379,84.594,291.684,79.423,290.917,74.221z"/>
		<g>
			<path fill="#FFFFFF" d="M518.81,123.428V83.807c0-11.668-6.651-20.534-19.309-20.534c-12.167,0-19.779,9.56-19.779,21.226
				l0.12,38.851l-20.414,0.164V47.093l20.294-0.03l0.12,9.72c8.112-7.619,13.585-9.838,23.644-9.838
				c18.815,0,35.118,12.595,35.118,36.706v39.777H518.81z"/>
		</g>
	</g>
</g>
</svg>
