<?xml version="1.0" encoding="UTF-8"?>
<svg width="624px" height="114px" viewBox="0 0 624 114" version="1.1" xmlns="http://www.w3.org/2000/svg" xmlns:xlink="http://www.w3.org/1999/xlink">
    <!-- Generator: Sketch 41.2 (35397) - http://www.bohemiancoding.com/sketch -->
    <title>lilipink</title>
    <desc>Created with Sketch.</desc>
    <defs></defs>
    <g id="Page-1" stroke="none" stroke-width="1" fill="none" fill-rule="evenodd">
        <g id="lilipink" fill="#BA007C">
            <g id="Layer_1">
                <g id="Group">
                    <path d="M395.854,33.977 C394.388,20.774 387.688,11.085 375.106,5.561 C367.201,2.087 358.815,0.977 350.245,0.964 C332.059,0.927 313.875,0.951 295.691,0.958 C294.967,0.958 294.254,1.033 293.501,1.081 L293.501,113.607 L316.095,113.607 L316.095,78.82 L319.142,78.82 C329.06,78.82 338.993,79.092 348.896,78.722 C355.125,78.482 361.454,77.834 367.486,76.384 C378.452,73.747 387.091,67.681 392.232,57.554 C396.01,50.104 396.75,42.109 395.854,33.977 Z M372.782,46.676 C370.654,54.596 364.693,58.405 356.822,59.457 C352.349,60.051 347.763,59.995 343.23,60.039 C334.462,60.112 325.701,60.041 316.937,60.03 C316.777,60.03 316.619,59.949 316.277,59.859 L316.277,20.755 C329.952,20.755 343.435,20.3 356.872,20.901 C367.471,21.379 373.427,28.204 373.632,38.541 C373.686,41.247 373.484,44.064 372.782,46.676 Z" id="Shape"></path>
                    <g id="Shape">
                        <path d="M23.179,0.951 L23.179,5.449 L23.179,9.949 L23.179,12.196 L23.179,21.199 L23.179,23.447 L23.179,32.443 L23.179,34.697 L23.179,39.19 L23.179,48.192 L23.179,52.688 L23.179,54.941 L23.179,59.437 L23.179,68.436 L23.179,72.936 L23.179,75.188 L23.179,79.68 L23.179,88.682 L23.179,93.184 L32.174,93.184 L36.674,93.184 L38.924,93.184 C41.926,93.184 34.587,93.184 37.59,93.184 L42.086,93.184 L44.336,93.184 C47.329,93.184 42.577,93.184 45.581,93.184 L50.074,93.184 L52.327,93.184 L56.829,93.184 L59.079,93.184 L63.571,93.184 L65.824,93.184 L70.327,93.184 L72.573,93.184 L72.573,102.178 L72.573,106.682 L72.573,108.927 L72.573,113.427 L68.077,113.427 L63.571,113.427 L61.321,113.427 L56.828,113.427 L47.829,113.427 L43.327,113.427 L41.074,113.427 C39.58,113.427 45.829,113.427 44.336,113.427 L35.337,113.427 L30.841,113.427 C30.088,113.427 39.677,113.427 38.924,113.427 L34.431,113.427 L25.425,113.427 L20.929,113.427 L18.683,113.427 L14.183,113.427 L5.183,113.427 L0.687,113.427 L0.687,108.927 L0.687,104.436 L0.687,102.178 L0.687,97.676 L0.687,95.432 L0.687,90.94 L0.687,88.682 L0.687,84.188 L0.687,81.938 L0.687,77.436 L0.687,75.188 L0.687,70.686 L0.687,68.436 L0.687,63.94 L0.687,61.686 L0.687,52.688 L0.687,50.442 L0.687,45.942 L0.687,43.692 L0.687,39.19 L0.687,36.944 L0.687,27.952 L0.687,25.694 L0.687,21.199 L0.687,18.952 L0.687,14.446 L0.687,12.196 L0.687,7.696 L0.687,3.196 C0.793,3.027 0.541,0.974 0.687,0.951 C1.364,0.818 2.24,0.951 2.934,0.951 L7.433,0.951 L9.683,0.951 L14.182,0.951 C17.179,0.951 20.182,0.951 23.179,0.951 Z"></path>
                        <path d="M86.399,0.951 L88.655,0.951 L97.651,0.951 L106.65,0.951 L106.65,5.449 L106.65,14.446 L106.65,18.952 L106.65,21.199 L106.65,25.694 L102.15,25.694 L93.151,25.694 L88.654,25.694 L86.398,25.694 L86.398,7.696 L86.398,3.196 C86.399,2.451 86.399,1.696 86.399,0.951 Z"></path>
                        <path d="M147.481,0.951 L147.481,5.449 L147.481,7.696 L147.481,12.196 L147.481,14.446 L147.481,18.952 L147.481,21.199 L147.481,25.694 L147.481,27.952 L147.481,32.443 L147.481,34.697 L147.481,39.19 L147.481,41.441 L147.481,45.942 L147.481,48.192 L147.481,52.688 L147.481,54.941 L147.481,59.437 L147.481,61.686 L147.481,66.186 L147.481,68.436 L147.481,72.936 L147.481,75.188 L147.481,79.68 L147.481,81.938 L147.481,86.434 L147.481,88.682 L147.481,93.184 L147.481,95.432 L147.481,99.932 L147.481,102.178 L147.481,106.682 L147.481,111.182 L147.481,113.427 L138.482,113.427 L133.985,113.427 L131.735,113.427 L127.232,113.427 L127.232,108.927 L127.232,104.436 L127.232,102.178 L127.232,97.676 L127.232,95.432 L127.232,90.94 L127.232,88.682 L127.232,84.188 L127.232,81.938 L127.232,77.436 L127.232,75.188 L127.232,70.686 L127.232,68.436 L127.232,63.94 L127.232,61.686 L127.232,52.688 L127.232,50.442 L127.232,45.942 L127.232,43.692 L127.232,39.19 L127.232,36.944 L127.232,27.952 L127.232,25.694 L127.232,21.199 L127.232,18.952 L127.232,14.446 L127.232,12.196 L127.232,7.696 L127.232,3.196 C127.358,3.018 127.066,0.991 127.232,0.951 C127.889,0.797 128.808,0.951 129.485,0.951 L138.481,0.951 C141.482,0.951 144.478,0.951 147.481,0.951 Z"></path>
                        <path d="M170.645,0.951 L172.895,0.951 L181.89,0.951 L190.89,0.951 L190.89,5.449 L190.89,14.446 L190.89,18.952 L190.89,21.199 L190.89,25.694 L186.39,25.694 L177.394,25.694 L172.894,25.694 L170.644,25.694 L170.644,7.696 L170.644,3.196 C170.645,2.451 170.645,1.696 170.645,0.951 Z"></path>
                        <path d="M86.399,36.944 L88.655,36.944 L93.152,36.944 L97.651,36.944 L106.65,36.944 L106.65,41.441 L106.65,113.427 L97.651,113.427 L93.152,113.427 L90.902,113.427 L86.399,113.427 L86.399,77.436 L86.399,59.437 L86.399,50.442 L86.399,45.942 L86.399,43.692 L86.399,39.19 L86.399,36.944 Z"></path>
                        <path d="M170.645,36.944 L172.895,36.944 L177.395,36.944 L181.891,36.944 L190.891,36.944 L190.891,41.441 L190.891,113.427 L181.891,113.427 L177.395,113.427 L175.142,113.427 L170.646,113.427 L170.646,77.436 L170.646,59.437 L170.646,50.442 L170.646,45.942 L170.646,43.692 L170.646,39.19 C170.645,38.444 170.645,37.69 170.645,36.944 Z"></path>
                        <g transform="translate(407.000000, 0.000000)">
                            <path d="M0.404,0.951 L2.654,0.951 L11.653,0.951 L20.643,0.951 L20.643,5.449 L20.643,14.446 L20.643,18.952 L20.643,21.199 L20.643,25.694 L16.146,25.694 L7.154,25.694 L2.654,25.694 L0.404,25.694 L0.404,7.696 L0.404,3.196 L0.404,0.951 Z"></path>
                            <path d="M135.378,0.951 L137.622,0.951 L146.624,0.951 L155.623,0.951 L155.623,18.952 L155.623,27.952 L155.623,32.443 L155.623,34.697 L155.623,43.692 L155.623,48.192 L155.623,50.442 L155.623,59.437 L155.623,63.939 L155.623,66.185 L155.623,68.435 C156.071,68.14 187.01,36.96 187.116,36.942 C187.823,36.831 188.644,36.942 189.366,36.942 L191.615,36.942 L193.861,36.942 L198.368,36.942 L200.611,36.942 L205.11,36.942 L207.363,36.942 L211.862,36.942 C212.507,36.942 213.496,36.772 214.113,36.942 C214.113,36.942 177.932,72.743 178.124,72.935 C178.432,73.248 216.433,113.375 216.359,113.425 C215.997,113.717 214.584,113.321 214.113,113.425 C213.47,113.581 212.533,113.425 211.862,113.425 L209.61,113.425 L207.363,113.425 L198.368,113.425 L196.118,113.425 L193.861,113.425 C193.169,113.425 169.5,86.804 169.118,86.433 C168.747,86.062 167.167,84.633 166.869,84.187 L164.622,84.187 L162.372,84.187 L160.126,84.187 C159.824,84.633 155.73,88.412 155.623,88.681 C155.417,89.205 155.623,90.366 155.623,90.939 L155.623,93.183 L155.623,95.431 C155.623,96.16 155.692,96.954 155.623,97.674 C155.554,98.41 155.623,99.193 155.623,99.931 L155.623,102.177 L155.623,111.181 L155.623,113.427 L146.624,113.427 L142.121,113.427 L139.875,113.427 L135.378,113.427 L135.378,108.927 L135.378,104.435 L135.378,102.177 L135.378,97.674 L135.378,95.431 L135.378,90.939 L135.378,88.681 L135.378,84.187 L135.378,81.937 L135.378,77.435 L135.378,75.187 L135.378,70.685 L135.378,68.435 L135.378,63.939 L135.378,61.685 L135.378,52.686 L135.378,50.44 L135.378,45.94 L135.378,43.69 L135.378,39.188 L135.378,36.942 L135.378,27.95 L135.378,25.692 L135.378,21.197 L135.378,18.95 L135.378,14.444 L135.378,12.194 L135.378,7.694 L135.378,3.194 C135.378,2.451 135.378,1.696 135.378,0.951 Z"></path>
                            <path d="M0.404,36.944 L2.654,36.944 L7.154,36.944 L11.653,36.944 L20.643,36.944 L20.643,41.441 L20.643,113.427 L11.653,113.427 L7.154,113.427 L4.897,113.427 L0.404,113.427 L0.404,77.436 L0.404,59.437 L0.404,50.442 L0.404,45.942 L0.404,43.692 L0.404,39.19 L0.404,36.944 Z"></path>
                        </g>
                        <path d="M276.917,64.221 C276.137,58.984 273.363,54.366 269.086,51.207 C265.681,48.702 261.647,47.375 257.409,47.375 C252.428,47.375 247.643,49.279 244.047,52.578 C240.397,49.044 235.476,47.01 230.29,47.01 C226.255,47.01 222.366,48.224 219.039,50.533 C214.695,53.56 211.791,58.1 210.876,63.312 C209.963,68.497 211.128,73.713 214.144,77.988 L214.54,78.554 C214.659,78.554 214.785,78.547 214.905,78.554 L226.551,78.562 L222.184,72.333 C220.684,70.199 220.11,67.598 220.558,65.014 C221.022,62.405 222.476,60.118 224.653,58.606 C226.312,57.455 228.263,56.847 230.291,56.847 C233.54,56.847 236.576,58.424 238.428,61.074 L243.826,68.763 L249.444,61.212 C251.315,58.671 254.222,57.21 257.411,57.21 C259.538,57.21 261.562,57.871 263.258,59.125 C265.408,60.704 266.799,63.021 267.19,65.655 C267.568,68.25 266.921,70.829 265.361,72.928 L251.557,91.49 L251.438,91.657 C251.06,92.208 250.496,92.795 249.742,93.417 L249.579,93.553 C249.556,93.573 247.177,95.507 243.663,95.507 L243.537,95.507 C239.814,95.452 237.548,93.458 237.515,93.422 L237.19,93.143 C236.583,92.649 236.015,92.038 235.484,91.285 L235.016,90.623 C232.753,90.769 223.492,90.933 223.492,90.933 C224.544,92.4 229.621,99.654 230.888,100.681 C231.943,101.642 236.41,105.248 243.401,105.345 L243.663,105.345 C250.585,105.345 255.161,101.726 256.03,100.972 C257.477,99.788 258.605,98.578 259.505,97.285 L273.249,78.8 C276.379,74.594 277.684,69.423 276.917,64.221 Z"></path>
                        <path d="M504.81,113.428 L504.81,73.807 C504.81,62.139 498.16,53.273 485.501,53.273 C473.334,53.273 465.722,62.833 465.722,74.499 L465.842,113.35 L445.428,113.514 L445.428,37.093 L465.722,37.063 L465.842,46.783 C473.954,39.164 479.427,36.945 489.487,36.945 C508.301,36.945 524.604,49.54 524.604,73.651 L524.604,113.428 L504.81,113.428 Z"></path>
                    </g>
                </g>
            </g>
        </g>
    </g>
</svg>