<svg xmlns="http://www.w3.org/2000/svg" width="180" height="35">
  <g transform="translate(0,-1017.3622)">
    <g transform="matrix(1.25,0,0,-1.25,107.74011,1031.8096)" style="fill:#dc2387;fill-opacity:1">
      <path style="fill:#dc2387;fill-opacity:1;fill-rule:evenodd;stroke:none" d="m 0,0 c -0.492,-1.829 -1.87,-2.71 -3.69,-2.954 -1.034,-0.137 -2.092,-0.123 -3.141,-0.133 -2.025,-0.017 -4.052,-0.002 -6.077,0.001 -0.036,0 -0.072,0.019 -0.153,0.04 l 0,9.037 c 3.162,0 6.277,0.106 9.384,-0.032 C -1.229,5.848 0.148,4.271 0.195,1.882 0.208,1.253 0.161,0.604 0,0 m 5.332,2.936 c -0.34,3.051 -1.887,5.292 -4.795,6.567 -1.827,0.804 -3.766,1.06 -5.747,1.064 -4.202,0.008 -8.406,0 -12.609,0 -0.167,0 -0.332,-0.017 -0.506,-0.029 l 0,-26.006 5.221,0 0,8.038 0.704,0 c 2.293,0 4.588,-0.063 6.879,0.024 1.438,0.053 2.901,0.204 4.296,0.54 2.534,0.609 4.531,2.012 5.719,4.351 0.875,1.725 1.045,3.571 0.838,5.451" />
    </g>
    <g transform="matrix(1.25,0,0,-1.25,6.7329882,1018.6004)" style="fill:#dc2387;fill-opacity:1">
      <path style="fill:#dc2387;fill-opacity:1;fill-rule:evenodd;stroke:none" d="m 0,0 0,-1.039 0,-1.039 0,-0.52 0,-2.081 0,-0.519 0,-2.079 0,-0.52 0,-1.039 0,-2.082 0,-1.039 0,-0.522 0,-1.039 0,-2.079 0,-1.04 0,-0.521 0,-1.037 0,-2.08 0,-1.041 2.08,0 1.039,0 0.52,0 -0.309,0 1.04,0 0.52,0 0.289,0 1.038,0 0.52,0 1.04,0 0.521,0 1.038,0 0.519,0 1.042,0 0.52,0 0,-2.08 0,-1.04 0,-0.519 0,-1.041 -1.038,0 -1.043,0 -0.521,0 -1.038,0 -2.079,0 -1.04,0 -0.522,0 0.754,0 -2.079,0 -1.04,0 1.868,0 -1.038,0 -2.081,0 -1.041,0 -0.519,0 -1.04,0 -2.079,0 -1.039,0 0,1.041 0,1.037 0,0.522 0,1.041 0,0.518 0,1.039 0,0.523 0,1.039 0,0.519 0,1.039 0,0.52 0,1.042 0,0.519 0,1.04 0,0.52 0,2.08 0,0.52 0,1.04 0,0.52 0,1.041 0,0.52 0,2.078 0,0.521 0,1.038 0,0.52 0,1.041 0,0.52 0,1.041 0,1.039 c 0.024,0.039 -0.034,0.514 0,0.518 0.156,0.032 0.358,0 0.519,0 L -3.64,0 -3.12,0 -2.08,0 0,0 z" />
    </g>
    <g transform="matrix(1.25,0,0,-1.25,24.998358,1018.6004)" style="fill:#dc2387;fill-opacity:1">
      <path style="fill:#dc2387;fill-opacity:1;fill-rule:evenodd;stroke:none" d="m 0,0 0.522,0 2.08,0 2.079,0 0,-1.039 0,-2.079 0,-1.041 0,-0.52 0,-1.038 -1.039,0 -2.08,0 -1.04,0 -0.522,0 0,4.16 0,1.039 L 0,0 z" />
    </g>
    <g transform="matrix(1.25,0,0,-1.25,42.646108,1018.6004)" style="fill:#dc2387;fill-opacity:1">
      <path style="fill:#dc2387;fill-opacity:1;fill-rule:evenodd;stroke:none" d="m 0,0 0,-1.039 0,-0.518 0,-1.041 0,-0.52 0,-1.041 0,-0.52 0,-1.038 0,-0.521 0,-1.039 0,-0.52 0,-1.039 0,-0.519 0,-1.042 0,-0.521 0,-1.039 0,-0.522 0,-1.039 0,-0.519 0,-1.04 0,-0.52 0,-1.04 0,-0.521 0,-1.037 0,-0.522 0,-1.039 0,-0.519 0,-1.041 0,-0.521 0,-1.039 0,-0.52 0,-1.04 0,-1.042 0,-0.518 -2.08,0 -1.039,0 -0.52,0 -1.041,0 0,1.041 0,1.037 0,0.522 0,1.041 0,0.518 0,1.039 0,0.523 0,1.039 0,0.519 0,1.039 0,0.52 0,1.042 0,0.519 0,1.04 0,0.52 0,2.08 0,0.52 0,1.04 0,0.52 0,1.041 0,0.52 0,2.078 0,0.521 0,1.038 0,0.52 0,1.041 0,0.52 0,1.041 0,1.039 c 0.029,0.042 -0.039,0.509 0,0.518 0.152,0.037 0.365,0 0.52,0 L -2.08,0 0,0 z" />
    </g>
    <g transform="matrix(1.25,0,0,-1.25,49.339238,1018.6004)" style="fill:#dc2387;fill-opacity:1">
      <path style="fill:#dc2387;fill-opacity:1;fill-rule:evenodd;stroke:none" d="m 0,0 0.52,0 2.079,0 2.08,0 0,-1.039 0,-2.079 0,-1.041 0,-0.52 0,-1.038 -1.04,0 -2.079,0 -1.04,0 -0.52,0 0,4.16 0,1.039 L 0,0 z" />
    </g>
    <g transform="matrix(1.25,0,0,-1.25,24.998358,1028.9959)" style="fill:#dc2387;fill-opacity:1">
      <path style="fill:#dc2387;fill-opacity:1;fill-rule:evenodd;stroke:none" d="m 0,0 0.522,0 1.04,0 1.04,0 2.079,0 0,-1.039 0,-16.641 -2.079,0 -1.04,0 -0.52,0 -1.042,0 0,8.319 0,4.16 0,2.081 0,1.039 0,0.52 L 0,-0.52 0,0 z" />
    </g>
    <g transform="matrix(1.25,0,0,-1.25,49.339238,1028.9959)" style="fill:#dc2387;fill-opacity:1">
      <path style="fill:#dc2387;fill-opacity:1;fill-rule:evenodd;stroke:none" d="m 0,0 0.52,0 1.04,0 1.039,0 2.08,0 0,-1.039 0,-16.641 -2.08,0 -1.039,0 -0.52,0 -1.04,0 0,8.319 0,4.16 0,2.081 0,1.039 0,0.52 L 0,-0.52 0,0 z" />
    </g>
    <g transform="matrix(1.25,0,0,-1.25,117.74248,1018.6004)" style="fill:#dc2387;fill-opacity:1">
      <path style="fill:#dc2387;fill-opacity:1;fill-rule:evenodd;stroke:none" d="m 0,0 0.521,0 2.079,0 2.078,0 0,-1.039 0,-2.079 0,-1.041 0,-0.52 0,-1.038 -1.04,0 -2.078,0 -1.039,0 -0.521,0 0,4.16 0,1.039 L 0,0 z" />
    </g>
    <g transform="matrix(1.25,0,0,-1.25,156.73911,1018.6004)" style="fill:#dc2387;fill-opacity:1">
      <path style="fill:#dc2387;fill-opacity:1;fill-rule:evenodd;stroke:none" d="m 0,0 0.519,0 2.08,0 2.08,0 0,-4.159 0,-2.079 0,-1.039 0,-0.52 0,-2.08 0,-1.041 0,-0.519 0,-2.081 0,-1.039 0,-0.52 0,-0.52 c 0.104,0.069 7.256,7.275 7.279,7.281 0.164,0.025 0.353,0 0.52,0 l 0.52,0 0.519,0 1.043,0 0.517,0 1.039,0 0.522,0 1.041,0 c 0.148,0 0.377,0.038 0.518,0 0,0 -8.362,-8.276 -8.317,-8.321 0.071,-0.072 8.853,-9.347 8.837,-9.359 -0.083,-0.068 -0.409,0.025 -0.52,0 -0.146,-0.035 -0.364,0 -0.518,0 l -0.522,0 -0.519,0 -2.078,0 -0.522,0 -0.521,0 c -0.16,0 -5.632,6.154 -5.719,6.24 -0.086,0.086 -0.45,0.414 -0.521,0.52 l -2.598,-2.601 c 0,-0.169 0.015,-0.35 0,-0.518 -0.016,-0.17 0,-0.351 0,-0.521 l 0,-0.52 0,-2.082 0,-0.518 -2.08,0 -1.04,0 -0.52,0 -1.039,0 0,1.041 0,1.037 0,0.522 0,1.041 0,0.518 0,1.039 0,0.523 0,1.039 0,0.519 0,1.039 0,0.52 0,1.042 0,0.519 0,1.04 0,0.52 0,2.08 0,0.52 0,1.04 0,0.52 0,1.041 0,0.52 0,2.078 0,0.521 0,1.038 0,0.52 0,1.041 0,0.52 0,1.041 0,1.039 L 0,0 z" />
    </g>
    <g transform="matrix(1.25,0,0,-1.25,117.74248,1028.9959)" style="fill:#dc2387;fill-opacity:1">
      <path style="fill:#dc2387;fill-opacity:1;fill-rule:evenodd;stroke:none" d="m 0,0 0.521,0 1.039,0 1.04,0 2.078,0 0,-1.039 0,-16.641 -2.078,0 -1.04,0 -0.521,0 -1.039,0 0,8.319 0,4.16 0,2.081 0,1.039 0,0.52 L 0,-0.52 0,0 z" />
    </g>
    <g transform="matrix(1.25,0,0,-1.25,80.042358,1036.8767)" style="fill:#dc2387;fill-opacity:1">
      <path style="fill:#dc2387;fill-opacity:1;fill-rule:nonzero;stroke:none" d="m 0,0 c -0.18,1.209 -0.822,2.277 -1.81,3.006 -0.788,0.58 -1.72,0.887 -2.699,0.887 -1.151,0 -2.257,-0.44 -3.089,-1.204 -0.843,0.818 -1.98,1.289 -3.178,1.289 -0.933,0 -1.832,-0.283 -2.602,-0.814 -1.004,-0.701 -1.674,-1.75 -1.886,-2.956 -0.211,-1.197 0.058,-2.403 0.754,-3.392 l 0.093,-0.129 c 0.027,-10e-4 0.057,0 0.084,-10e-4 l 2.69,0 -1.007,1.437 c -0.348,0.494 -0.479,1.096 -0.376,1.693 0.108,0.603 0.443,1.131 0.945,1.481 0.385,0.266 0.835,0.405 1.305,0.405 0.75,0 1.451,-0.364 1.88,-0.975 l 1.248,-1.779 1.297,1.745 c 0.433,0.588 1.105,0.924 1.842,0.924 0.492,0 0.96,-0.152 1.351,-0.44 0.498,-0.366 0.818,-0.902 0.909,-1.509 0.089,-0.6 -0.063,-1.197 -0.423,-1.683 L -5.861,-6.306 -5.889,-6.344 C -5.977,-6.473 -6.107,-6.605 -6.281,-6.75 l -0.038,-0.031 c -0.004,-0.006 -0.555,-0.453 -1.368,-0.453 l -0.029,0 c -0.859,0.013 -1.384,0.476 -1.391,0.482 l -0.076,0.066 c -0.139,0.113 -0.271,0.254 -0.393,0.43 l -0.109,0.151 c -0.523,-0.034 -2.664,-0.069 -2.664,-0.069 0.244,-0.341 1.417,-2.017 1.709,-2.255 0.245,-0.222 1.277,-1.055 2.893,-1.077 l 0.06,0 c 1.6,0 2.66,0.836 2.86,1.01 0.334,0.271 0.596,0.555 0.803,0.853 l 3.176,4.272 C -0.124,-2.398 0.177,-1.201 0,0" />
    </g>
    <g transform="matrix(1.25,0,0,-1.25,145.88461,1051.0955)" style="fill:#dc2387;fill-opacity:1">
      <path style="fill:#dc2387;fill-opacity:1;fill-rule:nonzero;stroke:none" d="m 0,0 0,9.158 c 0,2.697 -1.537,4.747 -4.464,4.747 -2.81,0 -4.571,-2.21 -4.571,-4.907 l 0.028,-9.007 -4.718,-0.01 0,17.664 4.69,0.007 0.028,-2.248 c 1.874,1.762 3.14,2.276 5.464,2.276 4.349,0 8.118,-2.912 8.118,-8.484 L 4.575,0 0,0 z" />
    </g>
  </g>
</svg>
